<?xml version="1.0" encoding="utf-8"?>
<!-- Generator: Adobe Illustrator 18.1.1, SVG Export Plug-In . SVG Version: 6.00 Build 0)  -->
<svg version="1.1" id="Layer_1" xmlns="http://www.w3.org/2000/svg" xmlns:xlink="http://www.w3.org/1999/xlink" x="0px" y="0px"
	 viewBox="0 0 1190.6 841.9" enable-background="new 0 0 1190.6 841.9" xml:space="preserve">
<rect x="0" y="0" display="none" fill="#004A8F" width="1190.6" height="841.9"/>
<g>
	<g>
		<g>
			<path fill="#231F20" d="M282.5,469.6c-3.3-24.4-4.9-36.5-8.2-60.9c-23.1,5.4-34.7,8.2-57.7,14c3.5,25.8,5.3,38.7,8.8,64.4
				c-15.1,4.8-22.6,7.3-37.6,12.3c-9.7-70.2-14.5-105.3-24.2-175.5c15.5-2.2,23.3-3.3,38.8-5.4c3.5,25.4,5.2,38.1,8.7,63.5
				c23.2-4.8,34.8-7.1,58.1-11.7c-3.2-24-4.9-36-8.1-60c15.5-2.2,23.3-3.3,38.8-5.4c8.3,61.6,12.4,92.4,20.7,153.9
				C305.3,463,297.7,465.2,282.5,469.6z"/>
			<path fill="#231F20" d="M456.9,425.3c-5-9-7.5-13.5-12.5-22.6c-21.4,4.4-32.1,6.7-53.4,11.5c-2.3,11-3.4,16.5-5.7,27.6
				c-18.3,4.5-27.4,6.9-45.6,11.7c14.2-66.6,21.6-98.2,36.5-159.4c20.3-2.8,30.4-4.2,50.7-7.1c30.5,53,45.6,78.5,75.8,128.7
				C484.5,419.5,475.3,421.3,456.9,425.3z M430.1,374.6c-9-16.3-13.5-24.5-22.6-41.1c-4.3,18.8-6.4,28.4-10.6,47.6
				C410.2,378.4,416.8,377.1,430.1,374.6z"/>
			<path fill="#231F20" d="M628.7,287c-12.5,8.8-18.7,13.2-31.2,22.1c-7.5-7.1-18-10.7-30-9c-20.9,3-33.6,21-30.9,40.4
				c2.6,19.5,19.5,32.7,40.5,29.4c12-1.9,21.2-8.4,26.4-17.3c14.4,5,21.6,7.5,36,12.6c-11.3,19.5-32.4,34.2-58.1,38.4
				c-41.9,6.8-79.9-17.9-85.1-56.6c-5.2-38.8,24.5-74.9,66.4-80.7C588.3,262.9,612.5,271.3,628.7,287z"/>
			<path fill="#231F20" d="M805.1,375.8c-20.1,1.4-30.1,2.2-50.2,4c-14.3-18.9-21.5-28.2-35.7-46.6c-7.4,10.1-11.1,15.1-18.4,25.2
				c1.5,10.6,2.2,15.9,3.7,26.5c-15.6,1.7-23.4,2.7-39,4.7c-7.4-53.1-11-79.7-18.4-132.9c15.5-2.1,23.3-3.2,38.8-5.3
				c3,21.7,4.5,32.6,7.6,54.3c15.6-24.1,23.4-36.1,38.8-60.7c20.8-2.8,31.1-4.3,51.9-7.1c-17.2,25.8-25.9,38.4-43.3,63.4
				C766.4,330.3,779.3,345.1,805.1,375.8z"/>
			<path fill="#231F20" d="M848.9,264.1c1.1,7.9,1.7,11.8,2.8,19.7c29.6-3,44.4-4.4,74.1-7.1c2,13.8,2.9,20.7,4.9,34.5
				c-29.7,1.9-44.6,2.9-74.3,5.3c1.2,8.6,1.8,12.9,3,21.4c32.5-2.2,48.8-3.1,81.3-4.5c2.1,14.6,3.1,21.9,5.2,36.5
				c-48.5,0.6-72.6,1.5-120.9,4.5c-7.9-55.8-11.8-83.7-19.7-139.5c47.2-6.5,70.8-9.7,118-16.1c2.1,14.6,3.1,21.9,5.2,36.5
				C896.6,258.7,880.7,260.5,848.9,264.1z"/>
			<path fill="#231F20" d="M1011.2,206.9c47-6.4,68.3,9.3,74.2,51.9c3.9,28.6-2.2,46.4-21.4,54.9c16.3,22.9,24.5,34.7,41,59.3
				c-18.2-0.9-27.3-1.3-45.5-1.9c-14.2-20.8-21.3-30.9-35.4-50.5c-2.6,0.1-3.9,0.2-6.6,0.3c-6.7,0.2-10,0.3-16.7,0.5
				c2.7,19.4,4.1,29.1,6.8,48.6c-15.8-0.2-23.7-0.2-39.5-0.2c-8.7-61.6-13-92.4-21.7-154.1C972.3,212.2,985.3,210.4,1011.2,206.9z
				 M996.2,288.3c11.3-0.7,16.9-1,28.2-1.7c17.2-1,22.9-7.3,20.8-21.9c-2-14.5-9.3-20-26.5-18.3c-11.2,1.1-16.8,1.6-28,2.7
				C992.9,264.8,994,272.6,996.2,288.3z"/>
		</g>
	</g>
	<g>
		<g>
			<path fill="#FFFFFF" d="M282.5,469.6c-3.3-24.4-4.9-36.5-8.2-60.9c-23.1,5.4-34.7,8.2-57.7,14c3.5,25.8,5.3,38.7,8.8,64.4
				c-15.1,4.8-22.6,7.3-37.6,12.3c-9.7-70.2-14.5-105.3-24.2-175.5c15.5-2.2,23.3-3.3,38.8-5.4c3.5,25.4,5.2,38.1,8.7,63.5
				c23.2-4.8,34.8-7.1,58.1-11.7c-3.2-24-4.9-36-8.1-60c15.5-2.2,23.3-3.3,38.8-5.4c8.3,61.6,12.4,92.4,20.7,153.9
				C305.3,463,297.7,465.2,282.5,469.6z"/>
			<path fill="#FFFFFF" d="M456.9,425.3c-5-9-7.5-13.5-12.5-22.6c-21.4,4.4-32.1,6.7-53.4,11.5c-2.3,11-3.4,16.5-5.7,27.6
				c-18.3,4.5-27.4,6.9-45.6,11.7c14.2-66.6,21.6-98.2,36.5-159.4c20.3-2.8,30.4-4.2,50.7-7.1c30.5,53,45.6,78.5,75.8,128.7
				C484.5,419.5,475.3,421.3,456.9,425.3z M430.1,374.6c-9-16.3-13.5-24.5-22.6-41.1c-4.3,18.8-6.4,28.4-10.6,47.6
				C410.2,378.4,416.8,377.1,430.1,374.6z"/>
			<path fill="#FFFFFF" d="M628.7,287c-12.5,8.8-18.7,13.2-31.2,22.1c-7.5-7.1-18-10.7-30-9c-20.9,3-33.6,21-30.9,40.4
				c2.6,19.5,19.5,32.7,40.5,29.4c12-1.9,21.2-8.4,26.4-17.3c14.4,5,21.6,7.5,36,12.6c-11.3,19.5-32.4,34.2-58.1,38.4
				c-41.9,6.8-79.9-17.9-85.1-56.6c-5.2-38.8,24.5-74.9,66.4-80.7C588.3,262.9,612.5,271.3,628.7,287z"/>
			<path fill="#FFFFFF" d="M805.1,375.8c-20.1,1.4-30.1,2.2-50.2,4c-14.3-18.9-21.5-28.2-35.7-46.6c-7.4,10.1-11.1,15.1-18.4,25.2
				c1.5,10.6,2.2,15.9,3.7,26.5c-15.6,1.7-23.4,2.7-39,4.7c-7.4-53.1-11-79.7-18.4-132.9c15.5-2.1,23.3-3.2,38.8-5.3
				c3,21.7,4.5,32.6,7.6,54.3c15.6-24.1,23.4-36.1,38.8-60.7c20.8-2.8,31.1-4.3,51.9-7.1c-17.2,25.8-25.9,38.4-43.3,63.4
				C766.4,330.3,779.3,345.1,805.1,375.8z"/>
			<path fill="#FFFFFF" d="M848.9,264.1c1.1,7.9,1.7,11.8,2.8,19.7c29.6-3,44.4-4.4,74.1-7.1c2,13.8,2.9,20.7,4.9,34.5
				c-29.7,1.9-44.6,2.9-74.3,5.3c1.2,8.6,1.8,12.9,3,21.4c32.5-2.2,48.8-3.1,81.3-4.5c2.1,14.6,3.1,21.9,5.2,36.5
				c-48.5,0.6-72.6,1.5-120.9,4.5c-7.9-55.8-11.8-83.7-19.7-139.5c47.2-6.5,70.8-9.7,118-16.1c2.1,14.6,3.1,21.9,5.2,36.5
				C896.6,258.7,880.7,260.5,848.9,264.1z"/>
			<path fill="#FFFFFF" d="M1011.2,206.9c47-6.4,68.3,9.3,74.2,51.9c3.9,28.6-2.2,46.4-21.4,54.9c16.3,22.9,24.5,34.7,41,59.3
				c-18.2-0.9-27.3-1.3-45.5-1.9c-14.2-20.8-21.3-30.9-35.4-50.5c-2.6,0.1-3.9,0.2-6.6,0.3c-6.7,0.2-10,0.3-16.7,0.5
				c2.7,19.4,4.1,29.1,6.8,48.6c-15.8-0.2-23.7-0.2-39.5-0.2c-8.7-61.6-13-92.4-21.7-154.1C972.3,212.2,985.3,210.4,1011.2,206.9z
				 M996.2,288.3c11.3-0.7,16.9-1,28.2-1.7c17.2-1,22.9-7.3,20.8-21.9c-2-14.5-9.3-20-26.5-18.3c-11.2,1.1-16.8,1.6-28,2.7
				C992.9,264.8,994,272.6,996.2,288.3z"/>
		</g>
	</g>
</g>
<g>
	<g>
		<path fill="#231F20" d="M407.9,520.6l-15.9-33.8l-6.2,36.8l-16.9,2.3l-28.6-58.6l18.5-2.5l15.9,34.1l5.8-37.1l16.2-2.2l15.6,34.1
			l6.1-37.1l18.5-2.5l-11.7,64.2L407.9,520.6z"/>
		<path fill="#231F20" d="M463.4,465.5l1.2,8.4l31.4-4.3l1.9,14.1l-31.4,4.3l1.3,9.2l34.3-4.7l2,14.8l-50.8,7l-8.5-61.4l50.3-6.9
			l2,14.8L463.4,465.5z"/>
		<path fill="#231F20" d="M538,440.1c12.6-1.7,20.8,2.5,22.2,12.8c0.9,6.7-1.7,11.7-7.1,14.8c8.9,1.5,12.7,7.4,13.6,13.8
			c1.2,8.4-2.8,17.5-18.8,19.7l-34.6,4.8l-8.5-61.4L538,440.1z M536.6,465.6c4.9-0.7,7.4-3,6.9-6.7c-0.5-3.7-3.5-5.3-8.5-4.6
			l-11.7,1.6l1.6,11.3L536.6,465.6z M542,488.4c6.1-0.8,7.6-4.1,7.2-7.2c-0.4-3.1-2.7-5.8-8.8-5l-13.9,1.9l1.7,12.2L542,488.4z"/>
		<path fill="#231F20" d="M618.2,429.1c18.2-2.5,34.7,8.7,37.1,26.2c2.4,17.4-10.5,32.7-28.6,35.2l-26.3,3.6l-8.5-61.4L618.2,429.1z
			 M614.9,477l9.2-1.3c9.2-1.3,15.6-9.2,14.4-18.2c-1.2-9-9.6-14.9-18.8-13.6l-9.2,1.3L614.9,477z"/>
		<path fill="#231F20" d="M680.5,435.6l1.2,8.4l31.4-4.3l1.9,14.1l-31.4,4.3l1.3,9.2l34.3-4.7l2,14.8l-50.8,7l-8.5-61.4l50.3-6.9
			l2,14.8L680.5,435.6z"/>
		<path fill="#231F20" d="M774.4,413.6l-5.2,13.7c-7.5-2.6-16.1-3.6-22.1-2.7c-3.1,0.4-5.6,2-5.2,4.9c0.3,1.9,1.5,2.5,11.3,3.6
			c14.9,1.9,25.7,4,27.4,16.5c1.8,13.1-7.1,21.6-22.9,23.8c-11.4,1.6-22.2,0-31.3-4.4l5.7-13.4c8.5,3.4,17.7,4.4,25.6,3.4
			c3.4-0.5,6.2-2.1,5.8-4.9c-0.5-3.5-2.3-3.7-12.7-4.8c-14.3-1.5-24.8-3.3-26.4-15.3c-1.9-13.8,8.4-21.6,22.8-23.5
			C756.8,409.1,766.6,410.3,774.4,413.6z"/>
		<path fill="#231F20" d="M792.7,467.6l-8.5-61.4l16.5-2.3l8.5,61.4L792.7,467.6z"/>
		<path fill="#231F20" d="M845.4,396.8c8.7-1.1,17.8,0.7,25.4,5.6l-9.2,12.8c-4.3-2.8-9.3-3.9-14.1-3.2c-8.9,1.2-15.9,8.5-14.5,18.7
			c1.2,8.9,8.7,15.2,17.9,13.9c4.4-0.6,8.1-2.3,11.1-4.6l-0.8-5.8l-10.5,1.4l-1.6-11.8l26.2-3.6l3.7,26.8
			c-6.6,6.8-15.6,11.6-26,13.1c-18.1,2.5-34.8-9.6-37.2-27C813,412.9,827.9,399.1,845.4,396.8L845.4,396.8z"/>
		<path fill="#231F20" d="M932.6,448.2l-29.5-30.8l4.7,34.2l-16.2,2.2l-8.5-61.4l17.1-2.4l29.5,30.8l-4.7-34.2l16.2-2.2l8.5,61.4
			L932.6,448.2z"/>
	</g>
	<g>
		<path fill="#FFFFFF" d="M407.9,520.6l-15.9-33.8l-6.2,36.8l-16.9,2.3l-28.6-58.6l18.5-2.5l15.9,34.1l5.8-37.1l16.2-2.2l15.6,34.1
			l6.1-37.1l18.5-2.5l-11.7,64.2L407.9,520.6z"/>
		<path fill="#FFFFFF" d="M463.4,465.5l1.2,8.4l31.4-4.3l1.9,14.1l-31.4,4.3l1.3,9.2l34.3-4.7l2,14.8l-50.8,7l-8.5-61.4l50.3-6.9
			l2,14.8L463.4,465.5z"/>
		<path fill="#FFFFFF" d="M538,440.1c12.6-1.7,20.8,2.5,22.2,12.8c0.9,6.7-1.7,11.7-7.1,14.8c8.9,1.5,12.7,7.4,13.6,13.8
			c1.2,8.4-2.8,17.5-18.8,19.7l-34.6,4.8l-8.5-61.4L538,440.1z M536.6,465.6c4.9-0.7,7.4-3,6.9-6.7c-0.5-3.7-3.5-5.3-8.5-4.6
			l-11.7,1.6l1.6,11.3L536.6,465.6z M542,488.4c6.1-0.8,7.6-4.1,7.2-7.2c-0.4-3.1-2.7-5.8-8.8-5l-13.9,1.9l1.7,12.2L542,488.4z"/>
		<path fill="#FFFFFF" d="M618.2,429.1c18.2-2.5,34.7,8.7,37.1,26.2c2.4,17.4-10.5,32.7-28.6,35.2l-26.3,3.6l-8.5-61.4L618.2,429.1z
			 M614.9,477l9.2-1.3c9.2-1.3,15.6-9.2,14.4-18.2c-1.2-9-9.6-14.9-18.8-13.6l-9.2,1.3L614.9,477z"/>
		<path fill="#FFFFFF" d="M680.5,435.6l1.2,8.4l31.4-4.3l1.9,14.1l-31.4,4.3l1.3,9.2l34.3-4.7l2,14.8l-50.8,7l-8.5-61.4l50.3-6.9
			l2,14.8L680.5,435.6z"/>
		<path fill="#FFFFFF" d="M774.4,413.6l-5.2,13.7c-7.5-2.6-16.1-3.6-22.1-2.7c-3.1,0.4-5.6,2-5.2,4.9c0.3,1.9,1.5,2.5,11.3,3.6
			c14.9,1.9,25.7,4,27.4,16.5c1.8,13.1-7.1,21.6-22.9,23.8c-11.4,1.6-22.2,0-31.3-4.4l5.7-13.4c8.5,3.4,17.7,4.4,25.6,3.4
			c3.4-0.5,6.2-2.1,5.8-4.9c-0.5-3.5-2.3-3.7-12.7-4.8c-14.3-1.5-24.8-3.3-26.4-15.3c-1.9-13.8,8.4-21.6,22.8-23.5
			C756.8,409.1,766.6,410.3,774.4,413.6z"/>
		<path fill="#FFFFFF" d="M792.7,467.6l-8.5-61.4l16.5-2.3l8.5,61.4L792.7,467.6z"/>
		<path fill="#FFFFFF" d="M845.4,396.8c8.7-1.1,17.8,0.7,25.4,5.6l-9.2,12.8c-4.3-2.8-9.3-3.9-14.1-3.2c-8.9,1.2-15.9,8.5-14.5,18.7
			c1.2,8.9,8.7,15.2,17.9,13.9c4.4-0.6,8.1-2.3,11.1-4.6l-0.8-5.8l-10.5,1.4l-1.6-11.8l26.2-3.6l3.7,26.8
			c-6.6,6.8-15.6,11.6-26,13.1c-18.1,2.5-34.8-9.6-37.2-27C813,412.9,827.9,399.1,845.4,396.8L845.4,396.8z"/>
		<path fill="#FFFFFF" d="M932.6,448.2l-29.5-30.8l4.7,34.2l-16.2,2.2l-8.5-61.4l17.1-2.4l29.5,30.8l-4.7-34.2l16.2-2.2l8.5,61.4
			L932.6,448.2z"/>
	</g>
</g>
<g>
	<path fill="#FFFFFF" d="M41.2,660.4l99.1-84.1l0.3,0l1041.3-143.6l-99.1,84.1l-0.3,0L41.2,660.4z M141.1,578.2l-93.4,79.3
		l1034.2-142.6l93.4-79.3L141.1,578.2z"/>
	
		<rect x="-16.4" y="439.4" transform="matrix(0.1366 0.9906 -0.9906 0.1366 541.443 259.6364)" fill="#FFFFFF" width="276.3" height="2"/>
	<polygon fill="#FFFFFF" points="41.2,660.4 5.7,385.9 5.6,384.8 102.5,302.6 102.8,302.6 1141.6,159.3 1141.8,160.3 1181.7,432.7 
		1179.7,433 1139.9,161.6 103.3,304.5 7.7,385.7 7.7,385.7 43.1,660.2 	"/>
</g>
</svg>
